<svg width="24" height="24" viewBox="0 0 24 24" fill="none" xmlns="http://www.w3.org/2000/svg">
<path d="M12.2344 6.99844V3H2.25V21H21.75V6.99844H12.2344ZM6.24375 18.9984H4.24687V16.9969H6.24375V18.9984ZM6.24375 15H4.24687V12.9984H6.24375V15ZM6.24375 11.0016H4.24687V9H6.24375V11.0016ZM6.24375 6.99844H4.24687V4.99687H6.24375V6.99844ZM10.2375 18.9984H8.24063V16.9969H10.2375V18.9984ZM10.2375 15H8.24063V12.9984H10.2375V15ZM10.2375 11.0016H8.24063V9H10.2375V11.0016ZM10.2375 6.99844H8.24063V4.99687H10.2375V6.99844ZM19.7531 18.9984H12.2344V16.9969H14.2313V15H12.2344V12.9984H14.2313V10.9969H12.2344V9H19.7531V18.9984ZM17.9906 11.0016H15.9938V13.0031H17.9906V11.0016ZM17.9906 15H15.9938V17.0016H17.9906V15Z" fill="#8E8E93"/>
</svg>
