<svg width="20" height="20" viewBox="0 0 20 20" fill="none" xmlns="http://www.w3.org/2000/svg">
<path d="M19 2.5H1C0.5875 2.5 0.25 2.8375 0.25 3.25V15.25C0.25 15.6625 0.573437 16 0.990625 16H19C19.4125 16 19.75 15.6625 19.75 15.25V3.25C19.75 2.8375 19.4125 2.5 19 2.5ZM17.5 13.75H2.5V4.75H17.5V13.75ZM1.75 19.75H4.42188L5.47656 16.75H2.83281L1.75 19.75ZM11.0969 0.25H8.90313L8.36406 1.75H11.6359L11.0969 0.25ZM15.5781 19.75H18.25L17.1719 16.75H14.5234L15.5781 19.75ZM8.875 16.75H11.125V18.25H8.875V16.75Z" fill="#8E8E93"/>
</svg>
